<svg xmlns="http://www.w3.org/2000/svg" xmlns:xlink="http://www.w3.org/1999/xlink" width="2000" zoomAndPan="magnify" viewBox="0 0 1500 1499.999933" height="2000" preserveAspectRatio="xMidYMid meet" version="1.0"><path fill="#71492d" d="M 750 1500 C 336.484375 1500 0 1163.589844 0 750 C 0 336.410156 336.484375 0 750 0 C 1163.515625 0 1500 336.484375 1500 750 C 1500 1163.515625 1163.515625 1500 750 1500 Z M 750 36.335938 C 356.46875 36.335938 36.335938 356.46875 36.335938 750 C 36.335938 1143.53125 356.46875 1463.664062 750 1463.664062 C 1143.53125 1463.664062 1463.664062 1143.53125 1463.664062 750 C 1463.664062 356.46875 1143.53125 36.335938 750 36.335938 Z M 750 36.335938 " fill-opacity="1" fill-rule="nonzero"/><path fill="#71492d" d="M 669.839844 1156.976562 L 644.1875 1131.25 L 1025.4375 750 L 644.1875 368.75 L 669.839844 343.023438 L 1076.816406 750 Z M 669.839844 1156.976562 " fill-opacity="1" fill-rule="nonzero"/></svg>