<svg xmlns="http://www.w3.org/2000/svg" xmlns:xlink="http://www.w3.org/1999/xlink" width="2000" zoomAndPan="magnify" viewBox="0 0 1500 1499.999933" height="2000" preserveAspectRatio="xMidYMid meet" version="1.0"><defs><clipPath id="f694f4ee4f"><path d="M 60 184 L 1440 184 L 1440 1466.25 L 60 1466.25 Z M 60 184 " clip-rule="nonzero"/></clipPath></defs><path fill="#bf9f86" d="M 1391.753906 604.507812 C 1517.347656 430.558594 1503.730469 206.492188 1361.8125 103.246094 C 1219.375 0 1001.871094 57.601562 876.378906 231.03125 " fill-opacity="1" fill-rule="nonzero"/><g clip-path="url(#f694f4ee4f)"><path fill="#bf9f86" d="M 1439.582031 825.246094 C 1439.582031 835.738281 1439.304688 846.222656 1438.75 856.699219 C 1438.195312 867.175781 1437.367188 877.636719 1436.261719 888.074219 C 1435.15625 898.515625 1433.773438 908.925781 1432.121094 919.300781 C 1430.464844 929.679688 1428.535156 940.011719 1426.335938 950.300781 C 1424.132812 960.589844 1421.664062 970.820312 1418.921875 980.996094 C 1416.179688 991.171875 1413.171875 1001.28125 1409.898438 1011.320312 C 1406.625 1021.359375 1403.085938 1031.316406 1399.285156 1041.195312 C 1395.484375 1051.070312 1391.425781 1060.855469 1387.109375 1070.546875 C 1382.792969 1080.238281 1378.222656 1089.828125 1373.398438 1099.3125 C 1368.574219 1108.792969 1363.503906 1118.160156 1358.1875 1127.414062 C 1352.871094 1136.664062 1347.308594 1145.789062 1341.511719 1154.789062 C 1335.710938 1163.785156 1329.675781 1172.644531 1323.410156 1181.367188 C 1317.140625 1190.089844 1310.648438 1198.664062 1303.929688 1207.089844 C 1297.207031 1215.515625 1290.269531 1223.785156 1283.113281 1231.894531 C 1275.957031 1240.003906 1268.589844 1247.945312 1261.015625 1255.71875 C 1253.4375 1263.492188 1245.660156 1271.085938 1237.683594 1278.503906 C 1229.707031 1285.921875 1221.539062 1293.152344 1213.179688 1300.199219 C 1204.824219 1307.242188 1196.28125 1314.09375 1187.5625 1320.75 C 1178.84375 1327.402344 1169.953125 1333.855469 1160.890625 1340.105469 C 1151.828125 1346.355469 1142.609375 1352.394531 1133.226562 1358.222656 C 1123.847656 1364.050781 1114.320312 1369.660156 1104.644531 1375.054688 C 1094.96875 1380.445312 1085.15625 1385.617188 1075.207031 1390.5625 C 1065.257812 1395.507812 1055.183594 1400.222656 1044.984375 1404.707031 C 1034.789062 1409.191406 1024.476562 1413.441406 1014.054688 1417.457031 C 1003.632812 1421.472656 993.109375 1425.246094 982.488281 1428.78125 C 971.867188 1432.3125 961.160156 1435.601562 950.363281 1438.648438 C 939.566406 1441.695312 928.699219 1444.492188 917.753906 1447.039062 C 906.8125 1449.589844 895.808594 1451.886719 884.746094 1453.933594 C 873.679688 1455.980469 862.570312 1457.773438 851.410156 1459.3125 C 840.25 1460.851562 829.058594 1462.136719 817.832031 1463.164062 C 806.605469 1464.191406 795.355469 1464.964844 784.089844 1465.476562 C 772.820312 1465.992188 761.546875 1466.25 750.265625 1466.25 C 738.984375 1466.25 727.710938 1465.992188 716.441406 1465.476562 C 705.175781 1464.964844 693.929688 1464.191406 682.703125 1463.164062 C 671.472656 1462.136719 660.28125 1460.851562 649.121094 1459.3125 C 637.964844 1457.773438 626.851562 1455.980469 615.785156 1453.933594 C 604.722656 1451.886719 593.71875 1449.589844 582.777344 1447.039062 C 571.832031 1444.492188 560.964844 1441.695312 550.167969 1438.648438 C 539.371094 1435.601562 528.664062 1432.3125 518.042969 1428.777344 C 507.421875 1425.246094 496.898438 1421.46875 486.476562 1417.457031 C 476.054688 1413.441406 465.742188 1409.191406 455.546875 1404.707031 C 445.347656 1400.222656 435.273438 1395.507812 425.324219 1390.5625 C 415.375 1385.617188 405.5625 1380.445312 395.886719 1375.054688 C 386.210938 1369.660156 376.683594 1364.050781 367.304688 1358.222656 C 357.921875 1352.394531 348.703125 1346.355469 339.640625 1340.105469 C 330.582031 1333.855469 321.691406 1327.402344 312.96875 1320.75 C 304.25 1314.09375 295.710938 1307.242188 287.351562 1300.199219 C 278.992188 1293.152344 270.824219 1285.921875 262.847656 1278.503906 C 254.871094 1271.085938 247.09375 1263.492188 239.515625 1255.71875 C 231.941406 1247.945312 224.574219 1240.003906 217.417969 1231.894531 C 210.261719 1223.785156 203.324219 1215.515625 196.601562 1207.089844 C 189.882812 1198.664062 183.390625 1190.089844 177.121094 1181.367188 C 170.855469 1172.644531 164.820312 1163.785156 159.019531 1154.789062 C 153.222656 1145.789062 147.664062 1136.664062 142.34375 1127.414062 C 137.027344 1118.160156 131.957031 1108.792969 127.132812 1099.3125 C 122.308594 1089.828125 117.738281 1080.238281 113.421875 1070.546875 C 109.105469 1060.855469 105.046875 1051.070312 101.246094 1041.195312 C 97.445312 1031.316406 93.90625 1021.359375 90.632812 1011.320312 C 87.359375 1001.28125 84.351562 991.171875 81.609375 980.996094 C 78.867188 970.820312 76.398438 960.589844 74.195312 950.300781 C 71.996094 940.011719 70.066406 929.679688 68.410156 919.300781 C 66.757812 908.925781 65.375 898.515625 64.269531 888.074219 C 63.164062 877.636719 62.335938 867.175781 61.78125 856.699219 C 61.226562 846.222656 60.949219 835.738281 60.949219 825.246094 C 60.949219 814.757812 61.226562 804.273438 61.78125 793.792969 C 62.335938 783.316406 63.164062 772.855469 64.269531 762.417969 C 65.375 751.976562 66.757812 741.570312 68.410156 731.191406 C 70.066406 720.816406 71.996094 710.480469 74.195312 700.191406 C 76.398438 689.902344 78.867188 679.671875 81.609375 669.496094 C 84.351562 659.320312 87.359375 649.210938 90.632812 639.171875 C 93.90625 629.132812 97.445312 619.175781 101.246094 609.296875 C 105.046875 599.421875 109.105469 589.636719 113.421875 579.945312 C 117.738281 570.253906 122.308594 560.664062 127.132812 551.183594 C 131.957031 541.699219 137.027344 532.332031 142.34375 523.078125 C 147.664062 513.828125 153.222656 504.703125 159.019531 495.703125 C 164.820312 486.707031 170.855469 477.847656 177.121094 469.125 C 183.390625 460.402344 189.882812 451.828125 196.601562 443.402344 C 203.324219 434.976562 210.261719 426.707031 217.417969 418.597656 C 224.574219 410.488281 231.941406 402.546875 239.515625 394.773438 C 247.09375 387 254.871094 379.40625 262.847656 371.988281 C 270.824219 364.570312 278.992188 357.339844 287.351562 350.292969 C 295.710938 343.25 304.25 336.398438 312.96875 329.742188 C 321.691406 323.089844 330.582031 316.636719 339.640625 310.386719 C 348.703125 304.136719 357.921875 298.101562 367.304688 292.269531 C 376.683594 286.441406 386.210938 280.832031 395.886719 275.4375 C 405.5625 270.046875 415.375 264.878906 425.324219 259.933594 C 435.273438 254.988281 445.347656 250.269531 455.546875 245.785156 C 465.742188 241.300781 476.054688 237.050781 486.476562 233.035156 C 496.898438 229.023438 507.421875 225.246094 518.042969 221.714844 C 528.664062 218.179688 539.371094 214.890625 550.167969 211.84375 C 560.964844 208.800781 571.832031 206.003906 582.777344 203.453125 C 593.71875 200.902344 604.722656 198.605469 615.785156 196.558594 C 626.851562 194.511719 637.964844 192.71875 649.121094 191.179688 C 660.28125 189.640625 671.472656 188.359375 682.703125 187.328125 C 693.929688 186.300781 705.175781 185.53125 716.441406 185.015625 C 727.710938 184.5 738.984375 184.242188 750.265625 184.242188 C 761.546875 184.242188 772.820312 184.5 784.089844 185.015625 C 795.355469 185.53125 806.605469 186.300781 817.832031 187.328125 C 829.058594 188.359375 840.25 189.640625 851.410156 191.179688 C 862.566406 192.71875 873.679688 194.511719 884.746094 196.558594 C 895.808594 198.605469 906.8125 200.902344 917.753906 203.453125 C 928.699219 206.003906 939.566406 208.800781 950.363281 211.84375 C 961.160156 214.890625 971.867188 218.179688 982.488281 221.714844 C 993.109375 225.246094 1003.632812 229.023438 1014.054688 233.035156 C 1024.476562 237.050781 1034.789062 241.300781 1044.984375 245.785156 C 1055.183594 250.269531 1065.257812 254.988281 1075.207031 259.933594 C 1085.15625 264.878906 1094.96875 270.046875 1104.644531 275.4375 C 1114.320312 280.832031 1123.847656 286.441406 1133.226562 292.269531 C 1142.609375 298.101562 1151.828125 304.136719 1160.890625 310.386719 C 1169.953125 316.636719 1178.84375 323.089844 1187.5625 329.742188 C 1196.28125 336.398438 1204.824219 343.25 1213.179688 350.292969 C 1221.539062 357.339844 1229.707031 364.570312 1237.683594 371.988281 C 1245.660156 379.40625 1253.4375 387 1261.015625 394.773438 C 1268.589844 402.546875 1275.957031 410.488281 1283.113281 418.597656 C 1290.269531 426.707031 1297.207031 434.976562 1303.929688 443.402344 C 1310.648438 451.828125 1317.140625 460.402344 1323.410156 469.125 C 1329.675781 477.847656 1335.710938 486.707031 1341.511719 495.703125 C 1347.308594 504.703125 1352.871094 513.828125 1358.1875 523.078125 C 1363.503906 532.332031 1368.574219 541.699219 1373.398438 551.183594 C 1378.222656 560.664062 1382.792969 570.253906 1387.109375 579.945312 C 1391.425781 589.636719 1395.484375 599.421875 1399.285156 609.296875 C 1403.085938 619.175781 1406.625 629.132812 1409.898438 639.171875 C 1413.171875 649.210938 1416.179688 659.320312 1418.921875 669.496094 C 1421.664062 679.671875 1424.132812 689.902344 1426.335938 700.191406 C 1428.535156 710.480469 1430.464844 720.816406 1432.121094 731.191406 C 1433.773438 741.570312 1435.15625 751.976562 1436.261719 762.417969 C 1437.367188 772.855469 1438.195312 783.316406 1438.75 793.792969 C 1439.304688 804.273438 1439.582031 814.757812 1439.582031 825.246094 Z M 1439.582031 825.246094 " fill-opacity="1" fill-rule="nonzero"/></g><path fill="#bf9f86" d="M 108.152344 604.507812 C -17.441406 430.558594 -3.820312 206.597656 138.097656 103.246094 C 280.535156 0 498.035156 57.601562 623.527344 231.03125 " fill-opacity="1" fill-rule="nonzero"/></svg>