<svg xmlns="http://www.w3.org/2000/svg" xmlns:xlink="http://www.w3.org/1999/xlink" width="2000" zoomAndPan="magnify" viewBox="0 0 1500 1499.999933" height="2000" preserveAspectRatio="xMidYMid meet" version="1.0"><defs><clipPath id="d67c5dde73"><path d="M 60 184 L 1440 184 L 1440 1466.25 L 60 1466.25 Z M 60 184 " clip-rule="nonzero"/></clipPath></defs><path fill="#1b1b1b" d="M 1391.832031 604.507812 C 1517.433594 430.558594 1503.8125 206.492188 1361.886719 103.246094 C 1219.441406 0 1001.925781 57.601562 876.429688 231.03125 " fill-opacity="1" fill-rule="nonzero"/><g clip-path="url(#d67c5dde73)"><path fill="#1b1b1b" d="M 1439.660156 825.246094 C 1439.660156 835.738281 1439.382812 846.222656 1438.828125 856.699219 C 1438.277344 867.175781 1437.445312 877.636719 1436.339844 888.074219 C 1435.234375 898.515625 1433.855469 908.925781 1432.199219 919.300781 C 1430.542969 929.679688 1428.613281 940.011719 1426.414062 950.300781 C 1424.210938 960.589844 1421.742188 970.820312 1419 980.996094 C 1416.257812 991.171875 1413.25 1001.28125 1409.976562 1011.320312 C 1406.703125 1021.359375 1403.164062 1031.316406 1399.363281 1041.195312 C 1395.5625 1051.070312 1391.503906 1060.855469 1387.1875 1070.546875 C 1382.867188 1080.238281 1378.296875 1089.828125 1373.472656 1099.3125 C 1368.652344 1108.792969 1363.578125 1118.160156 1358.261719 1127.414062 C 1352.945312 1136.664062 1347.382812 1145.789062 1341.585938 1154.789062 C 1335.785156 1163.785156 1329.75 1172.644531 1323.484375 1181.367188 C 1317.214844 1190.089844 1310.71875 1198.664062 1304 1207.089844 C 1297.28125 1215.515625 1290.339844 1223.785156 1283.183594 1231.894531 C 1276.027344 1240.003906 1268.660156 1247.945312 1261.082031 1255.71875 C 1253.507812 1263.492188 1245.730469 1271.085938 1237.753906 1278.503906 C 1229.777344 1285.921875 1221.605469 1293.152344 1213.25 1300.199219 C 1204.890625 1307.242188 1196.347656 1314.09375 1187.628906 1320.75 C 1178.90625 1327.402344 1170.015625 1333.855469 1160.953125 1340.105469 C 1151.890625 1346.355469 1142.671875 1352.394531 1133.289062 1358.222656 C 1123.910156 1364.050781 1114.382812 1369.660156 1104.707031 1375.054688 C 1095.027344 1380.445312 1085.214844 1385.617188 1075.265625 1390.5625 C 1065.316406 1395.507812 1055.242188 1400.222656 1045.042969 1404.707031 C 1034.84375 1409.191406 1024.535156 1413.441406 1014.109375 1417.457031 C 1003.6875 1421.472656 993.164062 1425.246094 982.542969 1428.78125 C 971.921875 1432.3125 961.210938 1435.601562 950.417969 1438.648438 C 939.621094 1441.695312 928.75 1444.492188 917.804688 1447.039062 C 906.863281 1449.589844 895.859375 1451.886719 884.792969 1453.933594 C 873.730469 1455.980469 862.617188 1457.773438 851.457031 1459.3125 C 840.296875 1460.851562 829.105469 1462.136719 817.875 1463.164062 C 806.648438 1464.191406 795.402344 1464.964844 784.132812 1465.476562 C 772.863281 1465.992188 761.589844 1466.25 750.308594 1466.25 C 739.027344 1466.25 727.75 1465.992188 716.484375 1465.476562 C 705.214844 1464.964844 693.96875 1464.191406 682.738281 1463.164062 C 671.511719 1462.136719 660.320312 1460.851562 649.160156 1459.3125 C 638 1457.773438 626.886719 1455.980469 615.820312 1453.933594 C 604.757812 1451.886719 593.753906 1449.589844 582.808594 1447.039062 C 571.867188 1444.492188 560.996094 1441.695312 550.199219 1438.648438 C 539.402344 1435.601562 528.695312 1432.3125 518.070312 1428.777344 C 507.449219 1425.246094 496.925781 1421.46875 486.503906 1417.457031 C 476.082031 1413.441406 465.769531 1409.191406 455.570312 1404.707031 C 445.375 1400.222656 435.300781 1395.507812 425.351562 1390.5625 C 415.398438 1385.617188 405.585938 1380.445312 395.910156 1375.054688 C 386.234375 1369.660156 376.703125 1364.050781 367.324219 1358.222656 C 357.945312 1352.394531 348.722656 1346.355469 339.660156 1340.105469 C 330.601562 1333.855469 321.707031 1327.402344 312.988281 1320.75 C 304.265625 1314.09375 295.726562 1307.242188 287.367188 1300.199219 C 279.007812 1293.152344 270.839844 1285.921875 262.863281 1278.503906 C 254.886719 1271.085938 247.109375 1263.492188 239.53125 1255.71875 C 231.957031 1247.945312 224.589844 1240.003906 217.433594 1231.894531 C 210.273438 1223.785156 203.335938 1215.515625 196.617188 1207.089844 C 189.894531 1198.664062 183.402344 1190.089844 177.132812 1181.367188 C 170.863281 1172.644531 164.832031 1163.785156 159.03125 1154.789062 C 153.230469 1145.789062 147.671875 1136.664062 142.355469 1127.414062 C 137.035156 1118.160156 131.964844 1108.792969 127.140625 1099.3125 C 122.316406 1089.828125 117.746094 1080.238281 113.429688 1070.546875 C 109.113281 1060.855469 105.054688 1051.070312 101.253906 1041.195312 C 97.453125 1031.316406 93.914062 1021.359375 90.640625 1011.320312 C 87.363281 1001.28125 84.355469 991.171875 81.613281 980.996094 C 78.875 970.820312 76.402344 960.589844 74.203125 950.300781 C 72 940.011719 70.074219 929.679688 68.417969 919.300781 C 66.761719 908.925781 65.382812 898.515625 64.277344 888.074219 C 63.167969 877.636719 62.339844 867.175781 61.785156 856.699219 C 61.234375 846.222656 60.957031 835.738281 60.957031 825.246094 C 60.957031 814.757812 61.234375 804.273438 61.785156 793.792969 C 62.339844 783.316406 63.167969 772.855469 64.277344 762.417969 C 65.382812 751.976562 66.761719 741.570312 68.417969 731.191406 C 70.074219 720.816406 72 710.480469 74.203125 700.191406 C 76.402344 689.902344 78.875 679.671875 81.613281 669.496094 C 84.355469 659.320312 87.363281 649.210938 90.640625 639.171875 C 93.914062 629.132812 97.453125 619.175781 101.253906 609.296875 C 105.054688 599.421875 109.113281 589.636719 113.429688 579.945312 C 117.746094 570.253906 122.316406 560.664062 127.140625 551.183594 C 131.964844 541.699219 137.035156 532.332031 142.355469 523.078125 C 147.671875 513.828125 153.230469 504.703125 159.03125 495.703125 C 164.832031 486.707031 170.863281 477.847656 177.132812 469.125 C 183.402344 460.402344 189.894531 451.828125 196.617188 443.402344 C 203.335938 434.976562 210.273438 426.707031 217.433594 418.597656 C 224.589844 410.488281 231.957031 402.546875 239.53125 394.773438 C 247.109375 387 254.886719 379.40625 262.863281 371.988281 C 270.839844 364.570312 279.007812 357.339844 287.367188 350.292969 C 295.726562 343.25 304.265625 336.398438 312.988281 329.742188 C 321.707031 323.089844 330.601562 316.636719 339.660156 310.386719 C 348.722656 304.136719 357.945312 298.101562 367.324219 292.269531 C 376.703125 286.441406 386.234375 280.832031 395.910156 275.4375 C 405.585938 270.046875 415.398438 264.878906 425.351562 259.933594 C 435.300781 254.988281 445.375 250.269531 455.570312 245.785156 C 465.769531 241.300781 476.082031 237.050781 486.503906 233.035156 C 496.925781 229.023438 507.449219 225.246094 518.070312 221.714844 C 528.695312 218.179688 539.402344 214.890625 550.199219 211.84375 C 560.996094 208.800781 571.867188 206.003906 582.808594 203.453125 C 593.753906 200.902344 604.757812 198.605469 615.820312 196.558594 C 626.886719 194.511719 638 192.71875 649.160156 191.179688 C 660.320312 189.640625 671.511719 188.359375 682.738281 187.328125 C 693.96875 186.300781 705.214844 185.53125 716.484375 185.015625 C 727.75 184.5 739.027344 184.242188 750.308594 184.242188 C 761.589844 184.242188 772.863281 184.5 784.132812 185.015625 C 795.402344 185.53125 806.648438 186.300781 817.875 187.328125 C 829.105469 188.359375 840.296875 189.640625 851.457031 191.179688 C 862.617188 192.71875 873.726562 194.511719 884.792969 196.558594 C 895.859375 198.605469 906.863281 200.902344 917.804688 203.453125 C 928.75 206.003906 939.621094 208.800781 950.414062 211.84375 C 961.210938 214.890625 971.921875 218.179688 982.542969 221.714844 C 993.164062 225.246094 1003.6875 229.023438 1014.109375 233.035156 C 1024.535156 237.050781 1034.84375 241.300781 1045.042969 245.785156 C 1055.242188 250.269531 1065.316406 254.988281 1075.265625 259.933594 C 1085.214844 264.878906 1095.027344 270.046875 1104.707031 275.4375 C 1114.382812 280.832031 1123.910156 286.441406 1133.289062 292.269531 C 1142.671875 298.101562 1151.890625 304.136719 1160.953125 310.386719 C 1170.015625 316.636719 1178.90625 323.089844 1187.628906 329.742188 C 1196.347656 336.398438 1204.890625 343.25 1213.25 350.292969 C 1221.605469 357.339844 1229.777344 364.570312 1237.753906 371.988281 C 1245.730469 379.40625 1253.507812 387 1261.082031 394.773438 C 1268.660156 402.546875 1276.027344 410.488281 1283.183594 418.597656 C 1290.339844 426.707031 1297.28125 434.976562 1304 443.402344 C 1310.71875 451.828125 1317.214844 460.402344 1323.484375 469.125 C 1329.75 477.847656 1335.785156 486.707031 1341.585938 495.703125 C 1347.382812 504.703125 1352.945312 513.828125 1358.261719 523.078125 C 1363.578125 532.332031 1368.652344 541.699219 1373.472656 551.183594 C 1378.296875 560.664062 1382.867188 570.253906 1387.183594 579.945312 C 1391.503906 589.636719 1395.5625 599.421875 1399.363281 609.296875 C 1403.164062 619.175781 1406.703125 629.132812 1409.976562 639.171875 C 1413.25 649.210938 1416.257812 659.320312 1419 669.496094 C 1421.742188 679.671875 1424.210938 689.902344 1426.414062 700.191406 C 1428.613281 710.480469 1430.542969 720.816406 1432.199219 731.191406 C 1433.851562 741.570312 1435.234375 751.976562 1436.339844 762.417969 C 1437.445312 772.855469 1438.277344 783.316406 1438.828125 793.792969 C 1439.382812 804.273438 1439.660156 814.757812 1439.660156 825.246094 Z M 1439.660156 825.246094 " fill-opacity="1" fill-rule="nonzero"/></g><path fill="#1b1b1b" d="M 108.160156 604.507812 C -17.441406 430.558594 -3.820312 206.597656 138.105469 103.246094 C 280.550781 0 498.066406 57.601562 623.5625 231.03125 " fill-opacity="1" fill-rule="nonzero"/></svg>