<svg xmlns="http://www.w3.org/2000/svg" xmlns:xlink="http://www.w3.org/1999/xlink" zoomAndPan="magnify" preserveAspectRatio="xMidYMid meet" version="1.0" viewBox="128.3 676.23 1212.01 184.43"><defs><g/><clipPath id="ed5219ecd8"><path d="M 133 693 L 314 693 L 314 860.707031 L 133 860.707031 Z M 133 693 " clip-rule="nonzero"/></clipPath><clipPath id="7a2dabf725"><rect x="0" width="976" y="0" height="266"/></clipPath></defs><path fill="#71492d" d="M 306.910156 748.285156 C 323.289062 725.601562 321.511719 696.382812 303.003906 682.917969 C 284.429688 669.457031 256.066406 676.96875 239.699219 699.582031 " fill-opacity="1" fill-rule="nonzero"/><g clip-path="url(#ed5219ecd8)"><path fill="#71492d" d="M 313.144531 777.070312 C 313.144531 778.4375 313.109375 779.804688 313.039062 781.171875 C 312.964844 782.539062 312.859375 783.902344 312.714844 785.261719 C 312.570312 786.625 312.390625 787.980469 312.171875 789.335938 C 311.957031 790.6875 311.707031 792.035156 311.417969 793.378906 C 311.132812 794.71875 310.808594 796.054688 310.453125 797.378906 C 310.09375 798.707031 309.703125 800.023438 309.277344 801.335938 C 308.847656 802.644531 308.386719 803.941406 307.890625 805.230469 C 307.394531 806.519531 306.867188 807.792969 306.304688 809.058594 C 305.742188 810.320312 305.144531 811.570312 304.515625 812.808594 C 303.886719 814.046875 303.226562 815.265625 302.53125 816.472656 C 301.839844 817.679688 301.113281 818.871094 300.355469 820.042969 C 299.601562 821.214844 298.8125 822.371094 297.996094 823.507812 C 297.179688 824.648438 296.332031 825.765625 295.457031 826.863281 C 294.578125 827.960938 293.675781 829.039062 292.742188 830.097656 C 291.808594 831.15625 290.847656 832.191406 289.859375 833.203125 C 288.871094 834.21875 287.855469 835.207031 286.816406 836.175781 C 285.777344 837.144531 284.710938 838.085938 283.621094 839.003906 C 282.53125 839.921875 281.417969 840.816406 280.28125 841.683594 C 279.144531 842.550781 277.984375 843.394531 276.800781 844.207031 C 275.621094 845.023438 274.417969 845.8125 273.195312 846.570312 C 271.972656 847.332031 270.730469 848.0625 269.46875 848.765625 C 268.207031 849.46875 266.925781 850.144531 265.628906 850.789062 C 264.332031 851.433594 263.015625 852.046875 261.6875 852.632812 C 260.355469 853.21875 259.011719 853.773438 257.652344 854.296875 C 256.292969 854.820312 254.921875 855.3125 253.535156 855.773438 C 252.152344 856.234375 250.753906 856.660156 249.347656 857.058594 C 247.941406 857.457031 246.523438 857.820312 245.09375 858.152344 C 243.667969 858.484375 242.234375 858.785156 240.789062 859.050781 C 239.347656 859.320312 237.898438 859.554688 236.441406 859.753906 C 234.988281 859.953125 233.527344 860.121094 232.0625 860.257812 C 230.601562 860.390625 229.132812 860.492188 227.664062 860.558594 C 226.195312 860.625 224.722656 860.660156 223.253906 860.660156 C 221.78125 860.660156 220.3125 860.625 218.84375 860.558594 C 217.371094 860.492188 215.90625 860.390625 214.441406 860.257812 C 212.976562 860.121094 211.519531 859.953125 210.0625 859.753906 C 208.609375 859.554688 207.160156 859.320312 205.714844 859.050781 C 204.273438 858.785156 202.835938 858.484375 201.410156 858.152344 C 199.984375 857.820312 198.566406 857.457031 197.15625 857.058594 C 195.75 856.660156 194.355469 856.234375 192.96875 855.773438 C 191.582031 855.3125 190.210938 854.820312 188.851562 854.296875 C 187.492188 853.773438 186.148438 853.21875 184.820312 852.632812 C 183.488281 852.046875 182.175781 851.433594 180.878906 850.789062 C 179.578125 850.144531 178.300781 849.46875 177.039062 848.765625 C 175.777344 848.0625 174.535156 847.332031 173.3125 846.570312 C 172.085938 845.8125 170.886719 845.023438 169.703125 844.207031 C 168.523438 843.394531 167.363281 842.550781 166.226562 841.683594 C 165.085938 840.816406 163.972656 839.921875 162.882812 839.003906 C 161.792969 838.085938 160.730469 837.144531 159.6875 836.175781 C 158.648438 835.207031 157.632812 834.21875 156.644531 833.203125 C 155.660156 832.191406 154.699219 831.15625 153.765625 830.097656 C 152.832031 829.039062 151.925781 827.960938 151.050781 826.863281 C 150.171875 825.765625 149.328125 824.648438 148.507812 823.507812 C 147.691406 822.371094 146.90625 821.214844 146.148438 820.042969 C 145.390625 818.871094 144.667969 817.679688 143.972656 816.472656 C 143.28125 815.265625 142.621094 814.046875 141.988281 812.808594 C 141.359375 811.570312 140.765625 810.320312 140.203125 809.058594 C 139.640625 807.792969 139.109375 806.519531 138.613281 805.230469 C 138.117188 803.941406 137.65625 802.644531 137.230469 801.335938 C 136.804688 800.023438 136.410156 798.707031 136.054688 797.378906 C 135.695312 796.054688 135.375 794.71875 135.085938 793.378906 C 134.800781 792.035156 134.546875 790.6875 134.332031 789.335938 C 134.117188 787.980469 133.9375 786.625 133.792969 785.261719 C 133.648438 783.902344 133.539062 782.539062 133.46875 781.171875 C 133.394531 779.804688 133.359375 778.4375 133.359375 777.070312 C 133.359375 775.703125 133.394531 774.335938 133.46875 772.96875 C 133.539062 771.601562 133.648438 770.238281 133.792969 768.875 C 133.9375 767.515625 134.117188 766.15625 134.332031 764.804688 C 134.546875 763.453125 134.800781 762.105469 135.085938 760.761719 C 135.375 759.421875 135.695312 758.085938 136.054688 756.757812 C 136.410156 755.433594 136.804688 754.113281 137.230469 752.804688 C 137.65625 751.496094 138.117188 750.199219 138.613281 748.910156 C 139.109375 747.621094 139.640625 746.34375 140.203125 745.082031 C 140.765625 743.816406 141.359375 742.566406 141.988281 741.332031 C 142.621094 740.09375 143.28125 738.871094 143.972656 737.667969 C 144.667969 736.460938 145.390625 735.269531 146.148438 734.097656 C 146.90625 732.921875 147.691406 731.769531 148.507812 730.628906 C 149.328125 729.492188 150.171875 728.375 151.050781 727.277344 C 151.925781 726.175781 152.832031 725.097656 153.765625 724.042969 C 154.699219 722.984375 155.660156 721.949219 156.644531 720.933594 C 157.632812 719.921875 158.648438 718.929688 159.6875 717.964844 C 160.730469 716.996094 161.792969 716.054688 162.882812 715.132812 C 163.972656 714.214844 165.085938 713.324219 166.226562 712.453125 C 167.363281 711.585938 168.523438 710.746094 169.703125 709.929688 C 170.886719 709.117188 172.085938 708.328125 173.3125 707.570312 C 174.535156 706.808594 175.777344 706.078125 177.039062 705.375 C 178.300781 704.671875 179.578125 703.996094 180.878906 703.351562 C 182.175781 702.707031 183.488281 702.089844 184.820312 701.507812 C 186.148438 700.921875 187.492188 700.367188 188.851562 699.84375 C 190.210938 699.320312 191.582031 698.828125 192.96875 698.367188 C 194.355469 697.90625 195.75 697.476562 197.15625 697.082031 C 198.566406 696.683594 199.984375 696.320312 201.410156 695.984375 C 202.835938 695.652344 204.273438 695.355469 205.714844 695.085938 C 207.160156 694.820312 208.609375 694.585938 210.0625 694.386719 C 211.519531 694.183594 212.976562 694.019531 214.441406 693.882812 C 215.90625 693.75 217.371094 693.648438 218.84375 693.582031 C 220.3125 693.515625 221.78125 693.480469 223.253906 693.480469 C 224.722656 693.480469 226.195312 693.515625 227.664062 693.582031 C 229.132812 693.648438 230.601562 693.75 232.0625 693.882812 C 233.527344 694.019531 234.988281 694.183594 236.441406 694.386719 C 237.898438 694.585938 239.347656 694.820312 240.789062 695.085938 C 242.234375 695.355469 243.667969 695.652344 245.09375 695.984375 C 246.523438 696.320312 247.941406 696.683594 249.347656 697.082031 C 250.753906 697.476562 252.152344 697.90625 253.535156 698.367188 C 254.921875 698.828125 256.292969 699.320312 257.652344 699.84375 C 259.011719 700.367188 260.355469 700.921875 261.6875 701.507812 C 263.015625 702.089844 264.332031 702.707031 265.628906 703.351562 C 266.925781 703.996094 268.207031 704.671875 269.46875 705.375 C 270.730469 706.078125 271.972656 706.808594 273.195312 707.570312 C 274.417969 708.328125 275.621094 709.117188 276.800781 709.929688 C 277.984375 710.746094 279.144531 711.585938 280.28125 712.453125 C 281.417969 713.324219 282.53125 714.214844 283.621094 715.132812 C 284.710938 716.054688 285.777344 716.996094 286.816406 717.964844 C 287.855469 718.929688 288.871094 719.921875 289.859375 720.933594 C 290.847656 721.949219 291.808594 722.984375 292.742188 724.042969 C 293.675781 725.097656 294.578125 726.175781 295.457031 727.277344 C 296.332031 728.375 297.179688 729.492188 297.996094 730.628906 C 298.8125 731.769531 299.601562 732.921875 300.355469 734.097656 C 301.113281 735.269531 301.839844 736.460938 302.53125 737.667969 C 303.226562 738.871094 303.886719 740.09375 304.515625 741.332031 C 305.144531 742.566406 305.742188 743.816406 306.304688 745.082031 C 306.867188 746.34375 307.394531 747.621094 307.890625 748.910156 C 308.386719 750.199219 308.847656 751.496094 309.277344 752.804688 C 309.703125 754.113281 310.09375 755.433594 310.453125 756.757812 C 310.808594 758.085938 311.132812 759.421875 311.417969 760.761719 C 311.707031 762.105469 311.957031 763.453125 312.171875 764.804688 C 312.390625 766.15625 312.570312 767.515625 312.714844 768.875 C 312.859375 770.238281 312.964844 771.601562 313.039062 772.96875 C 313.109375 774.335938 313.144531 775.703125 313.144531 777.070312 Z M 313.144531 777.070312 " fill-opacity="1" fill-rule="nonzero"/></g><path fill="#71492d" d="M 139.515625 748.285156 C 123.136719 725.601562 124.914062 696.394531 143.421875 682.917969 C 161.996094 669.457031 190.359375 676.96875 206.726562 699.582031 " fill-opacity="1" fill-rule="nonzero"/><g transform="matrix(1, 0, 0, 1, 367, 614)"><g clip-path="url(#7a2dabf725)"><g fill="#2d241c" fill-opacity="1"><g transform="translate(0.802404, 216.259431)"><g><path d="M 9.40625 -126.640625 L 63.671875 -126.640625 C 71.390625 -126.640625 77.960938 -125.191406 83.390625 -122.296875 C 88.816406 -119.398438 92.859375 -115.507812 95.515625 -110.625 C 98.171875 -105.738281 99.5 -100.34375 99.5 -94.4375 C 99.5 -87.320312 97.6875 -81.5 94.0625 -76.96875 C 90.445312 -72.445312 86.226562 -69.523438 81.40625 -68.203125 L 81.40625 -66.9375 C 85.019531 -66.457031 88.785156 -65.070312 92.703125 -62.78125 C 96.628906 -60.488281 99.976562 -57.140625 102.75 -52.734375 C 105.53125 -48.328125 106.921875 -42.988281 106.921875 -36.71875 C 106.921875 -30.6875 105.5625 -24.835938 102.84375 -19.171875 C 100.132812 -13.503906 95.820312 -8.859375 89.90625 -5.234375 C 84 -1.617188 76.644531 0.1875 67.84375 0.1875 L 9.40625 0.1875 Z M 55.171875 -75.078125 C 60.117188 -75.078125 64.34375 -76.222656 67.84375 -78.515625 C 71.34375 -80.804688 73.09375 -84.601562 73.09375 -89.90625 C 73.09375 -95.09375 71.3125 -98.800781 67.75 -101.03125 C 64.1875 -103.269531 59.992188 -104.390625 55.171875 -104.390625 L 37.078125 -104.390625 L 37.078125 -75.078125 Z M 61.515625 -22.25 C 66.453125 -22.25 70.789062 -23.453125 74.53125 -25.859375 C 78.269531 -28.273438 80.140625 -32.5 80.140625 -38.53125 C 80.140625 -44.4375 78.238281 -48.65625 74.4375 -51.1875 C 70.644531 -53.726562 66.335938 -55 61.515625 -55 L 37.078125 -55 L 37.078125 -22.25 Z M 61.515625 -22.25 "/></g></g></g><g fill="#2d241c" fill-opacity="1"><g transform="translate(113.681748, 216.259431)"><g><path d="M 52.640625 1.625 C 42.515625 1.625 33.984375 -0.691406 27.046875 -5.328125 C 20.109375 -9.972656 14.976562 -16.066406 11.65625 -23.609375 C 8.34375 -31.148438 6.6875 -39.257812 6.6875 -47.9375 C 6.6875 -56.625 8.34375 -64.734375 11.65625 -72.265625 C 14.976562 -79.804688 20.109375 -85.925781 27.046875 -90.625 C 33.984375 -95.332031 42.632812 -97.6875 53 -97.6875 C 66.507812 -97.6875 77.242188 -93.4375 85.203125 -84.9375 C 93.160156 -76.4375 97.140625 -64.101562 97.140625 -47.9375 L 97.140625 -40.15625 L 33.828125 -40.15625 L 33.828125 -38.71875 C 33.828125 -33.769531 35.546875 -29.515625 38.984375 -25.953125 C 42.421875 -22.398438 46.789062 -20.625 52.09375 -20.625 C 56.195312 -20.625 59.695312 -21.554688 62.59375 -23.421875 C 65.488281 -25.296875 67.539062 -27.800781 68.75 -30.9375 L 96.421875 -30.9375 C 94.015625 -21.40625 89.039062 -13.59375 81.5 -7.5 C 73.957031 -1.414062 64.335938 1.625 52.640625 1.625 Z M 70.1875 -58.25 C 70.070312 -64.757812 68.414062 -69.582031 65.21875 -72.71875 C 62.019531 -75.851562 57.769531 -77.421875 52.46875 -77.421875 C 47.039062 -77.421875 42.726562 -75.734375 39.53125 -72.359375 C 36.332031 -68.984375 34.671875 -64.28125 34.546875 -58.25 Z M 70.1875 -58.25 "/></g></g></g><g fill="#2d241c" fill-opacity="1"><g transform="translate(217.516283, 216.259431)"><g><path d="M 42.875 1.625 C 31.050781 1.625 21.910156 -2.863281 15.453125 -11.84375 C 9.003906 -20.832031 5.78125 -32.863281 5.78125 -47.9375 C 5.78125 -63.132812 9.097656 -75.222656 15.734375 -84.203125 C 22.367188 -93.191406 31.535156 -97.6875 43.234375 -97.6875 C 51.316406 -97.6875 57.523438 -95.90625 61.859375 -92.34375 C 66.203125 -88.789062 69.222656 -85.207031 70.921875 -81.59375 L 72.359375 -81.59375 L 72.359375 -95.703125 L 100.765625 -95.703125 L 100.765625 0 L 72.359375 0 L 72.359375 -15.375 L 70.921875 -15.375 C 69.109375 -11.519531 66 -7.722656 61.59375 -3.984375 C 57.195312 -0.242188 50.957031 1.625 42.875 1.625 Z M 53.546875 -20.984375 C 59.941406 -20.984375 64.707031 -23.664062 67.84375 -29.03125 C 70.976562 -34.394531 72.546875 -40.757812 72.546875 -48.125 C 72.546875 -55.351562 70.976562 -61.648438 67.84375 -67.015625 C 64.707031 -72.390625 59.941406 -75.078125 53.546875 -75.078125 C 46.910156 -75.078125 42.054688 -72.453125 38.984375 -67.203125 C 35.910156 -61.960938 34.375 -55.660156 34.375 -48.296875 C 34.375 -40.816406 35.910156 -34.394531 38.984375 -29.03125 C 42.054688 -23.664062 46.910156 -20.984375 53.546875 -20.984375 Z M 53.546875 -20.984375 "/></g></g></g><g fill="#2d241c" fill-opacity="1"><g transform="translate(328.948454, 216.259431)"><g><path d="M 10.3125 -95.703125 L 38.359375 -95.703125 L 38.359375 -80.5 L 39.796875 -80.5 C 41.242188 -84.71875 44.109375 -88.304688 48.390625 -91.265625 C 52.671875 -94.222656 58.25 -95.703125 65.125 -95.703125 C 67.175781 -95.703125 69.109375 -95.519531 70.921875 -95.15625 L 69.65625 -69.28125 C 66.875 -70.25 63.675781 -70.734375 60.0625 -70.734375 C 52.457031 -70.734375 46.9375 -68.800781 43.5 -64.9375 C 40.070312 -61.082031 38.359375 -54.691406 38.359375 -45.765625 L 38.359375 0 L 10.3125 0 Z M 10.3125 -95.703125 "/></g></g></g><g fill="#2d241c" fill-opacity="1"><g transform="translate(404.563321, 216.259431)"><g><path d="M 41.796875 0.546875 C 32.265625 0.546875 25.238281 -0.898438 20.71875 -3.796875 C 16.195312 -6.691406 13.390625 -10.1875 12.296875 -14.28125 C 11.210938 -18.382812 10.671875 -23.632812 10.671875 -30.03125 L 10.859375 -135.6875 L 38.890625 -135.6875 L 38.890625 -35.8125 C 38.890625 -31.59375 39.097656 -28.425781 39.515625 -26.3125 C 39.941406 -24.207031 41.148438 -22.550781 43.140625 -21.34375 C 45.128906 -20.132812 48.296875 -19.53125 52.640625 -19.53125 C 54.929688 -19.53125 56.5 -19.65625 57.34375 -19.90625 L 57.34375 -0.359375 C 51.914062 0.242188 46.734375 0.546875 41.796875 0.546875 Z M 41.796875 0.546875 "/></g></g></g><g fill="#2d241c" fill-opacity="1"><g transform="translate(468.057944, 216.259431)"><g><path d="M 42.875 1.625 C 31.050781 1.625 21.910156 -2.863281 15.453125 -11.84375 C 9.003906 -20.832031 5.78125 -32.863281 5.78125 -47.9375 C 5.78125 -63.132812 9.097656 -75.222656 15.734375 -84.203125 C 22.367188 -93.191406 31.535156 -97.6875 43.234375 -97.6875 C 51.316406 -97.6875 57.523438 -95.90625 61.859375 -92.34375 C 66.203125 -88.789062 69.222656 -85.207031 70.921875 -81.59375 L 72.359375 -81.59375 L 72.359375 -95.703125 L 100.765625 -95.703125 L 100.765625 0 L 72.359375 0 L 72.359375 -15.375 L 70.921875 -15.375 C 69.109375 -11.519531 66 -7.722656 61.59375 -3.984375 C 57.195312 -0.242188 50.957031 1.625 42.875 1.625 Z M 53.546875 -20.984375 C 59.941406 -20.984375 64.707031 -23.664062 67.84375 -29.03125 C 70.976562 -34.394531 72.546875 -40.757812 72.546875 -48.125 C 72.546875 -55.351562 70.976562 -61.648438 67.84375 -67.015625 C 64.707031 -72.390625 59.941406 -75.078125 53.546875 -75.078125 C 46.910156 -75.078125 42.054688 -72.453125 38.984375 -67.203125 C 35.910156 -61.960938 34.375 -55.660156 34.375 -48.296875 C 34.375 -40.816406 35.910156 -34.394531 38.984375 -29.03125 C 42.054688 -23.664062 46.910156 -20.984375 53.546875 -20.984375 Z M 53.546875 -20.984375 "/></g></g></g><g fill="#2d241c" fill-opacity="1"><g transform="translate(579.490115, 216.259431)"><g><path d="M 9.40625 -95.703125 L 37.625 -95.703125 L 37.625 -81.765625 L 39.078125 -81.765625 C 41.128906 -86.234375 44.472656 -90.003906 49.109375 -93.078125 C 53.753906 -96.148438 59.394531 -97.6875 66.03125 -97.6875 C 78.570312 -97.6875 87.253906 -93.734375 92.078125 -85.828125 C 96.898438 -77.929688 99.3125 -69.101562 99.3125 -59.34375 L 99.3125 0 L 71.09375 0 L 71.09375 -54.453125 C 71.09375 -60.722656 69.707031 -65.664062 66.9375 -69.28125 C 64.164062 -72.90625 60.066406 -74.71875 54.640625 -74.71875 C 48.847656 -74.71875 44.5625 -72.816406 41.78125 -69.015625 C 39.007812 -65.210938 37.625 -60.359375 37.625 -54.453125 L 37.625 0 L 9.40625 0 Z M 9.40625 -95.703125 "/></g></g></g><g fill="#2d241c" fill-opacity="1"><g transform="translate(687.847067, 216.259431)"><g><path d="M 43.59375 1.625 C 31.78125 1.625 22.644531 -2.863281 16.1875 -11.84375 C 9.738281 -20.832031 6.515625 -32.863281 6.515625 -47.9375 C 6.515625 -63.257812 9.738281 -75.378906 16.1875 -84.296875 C 22.644531 -93.222656 31.84375 -97.6875 43.78125 -97.6875 C 51.863281 -97.6875 58.101562 -95.90625 62.5 -92.34375 C 66.90625 -88.789062 69.953125 -85.207031 71.640625 -81.59375 L 73.09375 -81.59375 L 73.09375 -135.859375 L 101.484375 -135.859375 L 101.484375 0 L 73.09375 0 L 73.09375 -15.375 L 71.640625 -15.375 C 69.585938 -11.269531 66.390625 -7.410156 62.046875 -3.796875 C 57.703125 -0.179688 51.550781 1.625 43.59375 1.625 Z M 54.09375 -20.625 C 60.476562 -20.625 65.269531 -23.335938 68.46875 -28.765625 C 71.664062 -34.191406 73.265625 -40.582031 73.265625 -47.9375 C 73.265625 -55.175781 71.695312 -61.445312 68.5625 -66.75 C 65.425781 -72.0625 60.601562 -74.71875 54.09375 -74.71875 C 47.582031 -74.71875 42.785156 -72.09375 39.703125 -66.84375 C 36.628906 -61.59375 35.09375 -55.289062 35.09375 -47.9375 C 35.09375 -40.582031 36.628906 -34.191406 39.703125 -28.765625 C 42.785156 -23.335938 47.582031 -20.625 54.09375 -20.625 Z M 54.09375 -20.625 "/></g></g></g><g fill="#2d241c" fill-opacity="1"><g transform="translate(798.555639, 216.259431)"><g><path d="M 52.640625 1.625 C 42.515625 1.625 33.984375 -0.691406 27.046875 -5.328125 C 20.109375 -9.972656 14.976562 -16.066406 11.65625 -23.609375 C 8.34375 -31.148438 6.6875 -39.257812 6.6875 -47.9375 C 6.6875 -56.625 8.34375 -64.734375 11.65625 -72.265625 C 14.976562 -79.804688 20.109375 -85.925781 27.046875 -90.625 C 33.984375 -95.332031 42.632812 -97.6875 53 -97.6875 C 66.507812 -97.6875 77.242188 -93.4375 85.203125 -84.9375 C 93.160156 -76.4375 97.140625 -64.101562 97.140625 -47.9375 L 97.140625 -40.15625 L 33.828125 -40.15625 L 33.828125 -38.71875 C 33.828125 -33.769531 35.546875 -29.515625 38.984375 -25.953125 C 42.421875 -22.398438 46.789062 -20.625 52.09375 -20.625 C 56.195312 -20.625 59.695312 -21.554688 62.59375 -23.421875 C 65.488281 -25.296875 67.539062 -27.800781 68.75 -30.9375 L 96.421875 -30.9375 C 94.015625 -21.40625 89.039062 -13.59375 81.5 -7.5 C 73.957031 -1.414062 64.335938 1.625 52.640625 1.625 Z M 70.1875 -58.25 C 70.070312 -64.757812 68.414062 -69.582031 65.21875 -72.71875 C 62.019531 -75.851562 57.769531 -77.421875 52.46875 -77.421875 C 47.039062 -77.421875 42.726562 -75.734375 39.53125 -72.359375 C 36.332031 -68.984375 34.671875 -64.28125 34.546875 -58.25 Z M 70.1875 -58.25 "/></g></g></g><g fill="#2d241c" fill-opacity="1"><g transform="translate(902.390174, 216.259431)"><g><path d="M 10.3125 -95.703125 L 38.359375 -95.703125 L 38.359375 -80.5 L 39.796875 -80.5 C 41.242188 -84.71875 44.109375 -88.304688 48.390625 -91.265625 C 52.671875 -94.222656 58.25 -95.703125 65.125 -95.703125 C 67.175781 -95.703125 69.109375 -95.519531 70.921875 -95.15625 L 69.65625 -69.28125 C 66.875 -70.25 63.675781 -70.734375 60.0625 -70.734375 C 52.457031 -70.734375 46.9375 -68.800781 43.5 -64.9375 C 40.070312 -61.082031 38.359375 -54.691406 38.359375 -45.765625 L 38.359375 0 L 10.3125 0 Z M 10.3125 -95.703125 "/></g></g></g></g></g></svg>